<svg xmlns="http://www.w3.org/2000/svg" width="400" height="417"><defs><linearGradient id="a" x1="0%" x2="100%" y1="50.001%" y2="50.001%"><stop offset="0%" stop-color="gray" stop-opacity=".25"/><stop offset="54%" stop-color="gray" stop-opacity=".12"/><stop offset="100%" stop-color="gray" stop-opacity=".1"/></linearGradient><linearGradient id="b" x1="0%" x2="100%" y1="50%" y2="50%"><stop offset="0%" stop-color="gray" stop-opacity=".25"/><stop offset="54%" stop-color="gray" stop-opacity=".12"/><stop offset="100%" stop-color="gray" stop-opacity=".1"/></linearGradient><linearGradient id="c" x1="0%" x2="100%" y1="50%" y2="50%"><stop offset="0%" stop-color="gray" stop-opacity=".25"/><stop offset="54%" stop-color="gray" stop-opacity=".12"/><stop offset="100%" stop-color="gray" stop-opacity=".1"/></linearGradient><linearGradient id="d" x1="50%" x2="50%" y1="99.994%" y2="0%"><stop offset="0%" stop-color="gray" stop-opacity=".25"/><stop offset="54%" stop-color="gray" stop-opacity=".12"/><stop offset="100%" stop-color="gray" stop-opacity=".1"/></linearGradient><linearGradient id="e" x1="0%" x2="100%" y1="50%" y2="50%"><stop offset="0%" stop-color="gray" stop-opacity=".25"/><stop offset="54%" stop-color="gray" stop-opacity=".12"/><stop offset="100%" stop-color="gray" stop-opacity=".1"/></linearGradient><linearGradient id="f" x1="0%" x2="100%" y1="49.981%" y2="49.981%"><stop offset="0%" stop-color="gray" stop-opacity=".25"/><stop offset="54%" stop-color="gray" stop-opacity=".12"/><stop offset="100%" stop-color="gray" stop-opacity=".1"/></linearGradient><linearGradient id="g" x1="0%" x2="100%" y1="50%" y2="50%"><stop offset="0%" stop-color="gray" stop-opacity=".25"/><stop offset="54%" stop-color="gray" stop-opacity=".12"/><stop offset="100%" stop-color="gray" stop-opacity=".1"/></linearGradient><linearGradient id="h" x1="0%" x2="100%" y1="50%" y2="50%"><stop offset="0%" stop-color="gray" stop-opacity=".25"/><stop offset="54%" stop-color="gray" stop-opacity=".12"/><stop offset="100%" stop-color="gray" stop-opacity=".1"/></linearGradient><linearGradient id="i" x1="0%" x2="100%" y1="50%" y2="50%"><stop offset="0%" stop-color="gray" stop-opacity=".25"/><stop offset="54%" stop-color="gray" stop-opacity=".12"/><stop offset="100%" stop-color="gray" stop-opacity=".1"/></linearGradient><linearGradient id="j" x1="50%" x2="50%" y1="100%" y2="0%"><stop offset="0%" stop-color="gray" stop-opacity=".25"/><stop offset="54%" stop-color="gray" stop-opacity=".12"/><stop offset="100%" stop-color="gray" stop-opacity=".1"/></linearGradient><linearGradient id="k" x1="0%" x2="100.006%" y1="50%" y2="50%"><stop offset="0%" stop-color="gray" stop-opacity=".25"/><stop offset="54%" stop-color="gray" stop-opacity=".12"/><stop offset="100%" stop-color="gray" stop-opacity=".1"/></linearGradient><linearGradient id="l" x1="50%" x2="50%" y1="100%" y2="0%"><stop offset="0%" stop-color="gray" stop-opacity=".25"/><stop offset="54%" stop-color="gray" stop-opacity=".12"/><stop offset="100%" stop-color="gray" stop-opacity=".1"/></linearGradient><linearGradient id="m" x1="0%" x2="100%" y1="49.997%" y2="49.997%"><stop offset="0%" stop-color="gray" stop-opacity=".25"/><stop offset="54%" stop-color="gray" stop-opacity=".12"/><stop offset="100%" stop-color="gray" stop-opacity=".1"/></linearGradient><linearGradient id="n" x1="50%" x2="50%" y1="100%" y2="0%"><stop offset="0%" stop-color="gray" stop-opacity=".25"/><stop offset="54%" stop-color="gray" stop-opacity=".12"/><stop offset="100%" stop-color="gray" stop-opacity=".1"/></linearGradient><linearGradient id="o" x1="0%" x2="100%" y1="50%" y2="50%"><stop offset="0%" stop-color="gray" stop-opacity=".25"/><stop offset="54%" stop-color="gray" stop-opacity=".12"/><stop offset="100%" stop-color="gray" stop-opacity=".1"/></linearGradient><linearGradient id="p" x1="0%" x2="100%" y1="50%" y2="50%"><stop offset="0%" stop-color="gray" stop-opacity=".25"/><stop offset="54%" stop-color="gray" stop-opacity=".12"/><stop offset="100%" stop-color="gray" stop-opacity=".1"/></linearGradient><linearGradient id="q" x1="0%" x2="100%" y1="50%" y2="50%"><stop offset="0%" stop-color="gray" stop-opacity=".25"/><stop offset="54%" stop-color="gray" stop-opacity=".12"/><stop offset="100%" stop-color="gray" stop-opacity=".1"/></linearGradient><linearGradient id="r" x1="0%" x2="100%" y1="50%" y2="50%"><stop offset="0%" stop-color="gray" stop-opacity=".25"/><stop offset="54%" stop-color="gray" stop-opacity=".12"/><stop offset="100%" stop-color="gray" stop-opacity=".1"/></linearGradient><linearGradient id="s" x1="0%" x2="100%" y1="50%" y2="50%"><stop offset="0%" stop-color="gray" stop-opacity=".25"/><stop offset="54%" stop-color="gray" stop-opacity=".12"/><stop offset="100%" stop-color="gray" stop-opacity=".1"/></linearGradient><linearGradient id="t" x1="0%" x2="100.031%" y1="50%" y2="50%"><stop offset="0%" stop-color="gray" stop-opacity=".25"/><stop offset="54%" stop-color="gray" stop-opacity=".12"/><stop offset="100%" stop-color="gray" stop-opacity=".1"/></linearGradient><linearGradient id="u" x1="0%" x2="100%" y1="50%" y2="50%"><stop offset="0%" stop-color="gray" stop-opacity=".25"/><stop offset="54%" stop-color="gray" stop-opacity=".12"/><stop offset="100%" stop-color="gray" stop-opacity=".1"/></linearGradient><linearGradient id="v" x1="0%" x2="100%" y1="49.996%" y2="49.996%"><stop offset="0%" stop-color="gray" stop-opacity=".25"/><stop offset="54%" stop-color="gray" stop-opacity=".12"/><stop offset="100%" stop-color="gray" stop-opacity=".1"/></linearGradient><linearGradient id="w" x1="50.007%" x2="50.007%" y1="100%" y2="0%"><stop offset="0%" stop-color="gray" stop-opacity=".25"/><stop offset="54%" stop-color="gray" stop-opacity=".12"/><stop offset="100%" stop-color="gray" stop-opacity=".1"/></linearGradient><linearGradient id="x" x1="0%" x2="100%" y1="50.008%" y2="50.008%"><stop offset="0%" stop-color="gray" stop-opacity=".25"/><stop offset="54%" stop-color="gray" stop-opacity=".12"/><stop offset="100%" stop-color="gray" stop-opacity=".1"/></linearGradient><linearGradient id="y" x1="50.017%" x2="50.017%" y1="99.899%" y2="-.151%"><stop offset="0%" stop-color="gray" stop-opacity=".25"/><stop offset="54%" stop-color="gray" stop-opacity=".12"/><stop offset="100%" stop-color="gray" stop-opacity=".1"/></linearGradient><linearGradient id="z" x1="0%" x2="100.037%" y1="50%" y2="50%"><stop offset="0%" stop-color="gray" stop-opacity=".25"/><stop offset="54%" stop-color="gray" stop-opacity=".12"/><stop offset="100%" stop-color="gray" stop-opacity=".1"/></linearGradient><linearGradient id="A" x1=".089%" x2="100%" y1="50.127%" y2="50.127%"><stop offset="0%" stop-color="gray" stop-opacity=".25"/><stop offset="54%" stop-color="gray" stop-opacity=".12"/><stop offset="100%" stop-color="gray" stop-opacity=".1"/></linearGradient><linearGradient id="B" x1="0%" x2="100.04%" y1="50%" y2="50%"><stop offset="0%" stop-color="gray" stop-opacity=".25"/><stop offset="54%" stop-color="gray" stop-opacity=".12"/><stop offset="100%" stop-color="gray" stop-opacity=".1"/></linearGradient><linearGradient id="C" x1="0%" x2="100%" y1="50%" y2="50%"><stop offset="0%" stop-color="gray" stop-opacity=".25"/><stop offset="54%" stop-color="gray" stop-opacity=".12"/><stop offset="100%" stop-color="gray" stop-opacity=".1"/></linearGradient><linearGradient id="D" x1="50.011%" x2="50.011%" y1="100%" y2="0%"><stop offset="0%" stop-color="gray" stop-opacity=".25"/><stop offset="54%" stop-color="gray" stop-opacity=".12"/><stop offset="100%" stop-color="gray" stop-opacity=".1"/></linearGradient><linearGradient id="E" x1="0%" x2="100%" y1="50%" y2="50%"><stop offset="0%" stop-color="gray" stop-opacity=".25"/><stop offset="54%" stop-color="gray" stop-opacity=".12"/><stop offset="100%" stop-color="gray" stop-opacity=".1"/></linearGradient><linearGradient id="F" x1="0%" x2="100%" y1="49.969%" y2="49.969%"><stop offset="0%" stop-color="gray" stop-opacity=".25"/><stop offset="54%" stop-color="gray" stop-opacity=".12"/><stop offset="100%" stop-color="gray" stop-opacity=".1"/></linearGradient><linearGradient id="G" x1="0%" x2="99.987%" y1="50%" y2="50%"><stop offset="0%" stop-color="gray" stop-opacity=".25"/><stop offset="54%" stop-color="gray" stop-opacity=".12"/><stop offset="100%" stop-color="gray" stop-opacity=".1"/></linearGradient><linearGradient id="H" x1="0%" x2="99.982%" y1="49.845%" y2="49.845%"><stop offset="0%" stop-color="gray" stop-opacity=".25"/><stop offset="54%" stop-color="gray" stop-opacity=".12"/><stop offset="100%" stop-color="gray" stop-opacity=".1"/></linearGradient><linearGradient id="I" x1="0%" x2="100%" y1="49.845%" y2="49.845%"><stop offset="0%" stop-color="gray" stop-opacity=".25"/><stop offset="54%" stop-color="gray" stop-opacity=".12"/><stop offset="100%" stop-color="gray" stop-opacity=".1"/></linearGradient><linearGradient id="J" x1="0%" x2="100%" y1="49.845%" y2="49.845%"><stop offset="0%" stop-color="gray" stop-opacity=".25"/><stop offset="54%" stop-color="gray" stop-opacity=".12"/><stop offset="100%" stop-color="gray" stop-opacity=".1"/></linearGradient><linearGradient id="K" x1="0%" x2="99.982%" y1="50.155%" y2="50.155%"><stop offset="0%" stop-color="gray" stop-opacity=".25"/><stop offset="54%" stop-color="gray" stop-opacity=".12"/><stop offset="100%" stop-color="gray" stop-opacity=".1"/></linearGradient><linearGradient id="L" x1="0%" x2="100%" y1="50.155%" y2="50.155%"><stop offset="0%" stop-color="gray" stop-opacity=".25"/><stop offset="54%" stop-color="gray" stop-opacity=".12"/><stop offset="100%" stop-color="gray" stop-opacity=".1"/></linearGradient><linearGradient id="M" x1="50%" x2="50%" y1="100%" y2="0%"><stop offset="0%" stop-color="gray" stop-opacity=".25"/><stop offset="54%" stop-color="gray" stop-opacity=".12"/><stop offset="100%" stop-color="gray" stop-opacity=".1"/></linearGradient><linearGradient id="N" x1="0%" x2="99.991%" y1="49.994%" y2="49.994%"><stop offset="0%" stop-color="gray" stop-opacity=".25"/><stop offset="54%" stop-color="gray" stop-opacity=".12"/><stop offset="100%" stop-color="gray" stop-opacity=".1"/></linearGradient><linearGradient id="O" x1="0%" x2="99.991%" y1="50%" y2="50%"><stop offset="0%" stop-color="gray" stop-opacity=".25"/><stop offset="54%" stop-color="gray" stop-opacity=".12"/><stop offset="100%" stop-color="gray" stop-opacity=".1"/></linearGradient><linearGradient id="P" x1="0%" x2="100%" y1="50%" y2="50%"><stop offset="0%" stop-color="gray" stop-opacity=".25"/><stop offset="54%" stop-color="gray" stop-opacity=".12"/><stop offset="100%" stop-color="gray" stop-opacity=".1"/></linearGradient><linearGradient id="Q" x1="0%" x2="100%" y1="49.875%" y2="49.875%"><stop offset="0%" stop-color="gray" stop-opacity=".25"/><stop offset="54%" stop-color="gray" stop-opacity=".12"/><stop offset="100%" stop-color="gray" stop-opacity=".1"/></linearGradient><linearGradient id="R" x1="0%" x2="100%" y1="50.125%" y2="50.125%"><stop offset="0%" stop-color="gray" stop-opacity=".25"/><stop offset="54%" stop-color="gray" stop-opacity=".12"/><stop offset="100%" stop-color="gray" stop-opacity=".1"/></linearGradient><linearGradient id="S" x1="0%" x2="100%" y1="49.875%" y2="49.875%"><stop offset="0%" stop-color="gray" stop-opacity=".25"/><stop offset="54%" stop-color="gray" stop-opacity=".12"/><stop offset="100%" stop-color="gray" stop-opacity=".1"/></linearGradient><linearGradient id="T" x1="0%" x2="100%" y1="50.125%" y2="50.125%"><stop offset="0%" stop-color="gray" stop-opacity=".25"/><stop offset="54%" stop-color="gray" stop-opacity=".12"/><stop offset="100%" stop-color="gray" stop-opacity=".1"/></linearGradient><linearGradient id="U" x1="0%" x2="100%" y1="50%" y2="50%"><stop offset="0%" stop-color="gray" stop-opacity=".25"/><stop offset="54%" stop-color="gray" stop-opacity=".12"/><stop offset="100%" stop-color="gray" stop-opacity=".1"/></linearGradient><linearGradient id="V" x1="0%" x2="100%" y1="50%" y2="50%"><stop offset="0%" stop-color="gray" stop-opacity=".25"/><stop offset="54%" stop-color="gray" stop-opacity=".12"/><stop offset="100%" stop-color="gray" stop-opacity=".1"/></linearGradient><linearGradient id="W" x1="0%" x2="100%" y1="50%" y2="50%"><stop offset="0%" stop-color="gray" stop-opacity=".25"/><stop offset="54%" stop-color="gray" stop-opacity=".12"/><stop offset="100%" stop-color="gray" stop-opacity=".1"/></linearGradient><linearGradient id="X" x1="0%" x2="100%" y1="50%" y2="50%"><stop offset="0%" stop-color="gray" stop-opacity=".25"/><stop offset="54%" stop-color="gray" stop-opacity=".12"/><stop offset="100%" stop-color="gray" stop-opacity=".1"/></linearGradient><linearGradient id="Y" x1="0%" x2="100%" y1="50%" y2="50%"><stop offset="0%" stop-color="gray" stop-opacity=".25"/><stop offset="54%" stop-color="gray" stop-opacity=".12"/><stop offset="100%" stop-color="gray" stop-opacity=".1"/></linearGradient><linearGradient id="Z" x1="50%" x2="50%" y1="100%" y2="0%"><stop offset="0%" stop-color="gray" stop-opacity=".25"/><stop offset="54%" stop-color="gray" stop-opacity=".12"/><stop offset="100%" stop-color="gray" stop-opacity=".1"/></linearGradient><linearGradient id="aa" x1="50.006%" x2="50.006%" y1="100%" y2="0%"><stop offset="0%" stop-color="gray" stop-opacity=".25"/><stop offset="54%" stop-color="gray" stop-opacity=".12"/><stop offset="100%" stop-color="gray" stop-opacity=".1"/></linearGradient><linearGradient id="ab" x1="50.003%" x2="50.003%" y1="100%" y2="0%"><stop offset="0%" stop-color="gray" stop-opacity=".25"/><stop offset="54%" stop-color="gray" stop-opacity=".12"/><stop offset="100%" stop-color="gray" stop-opacity=".1"/></linearGradient><linearGradient id="ac" x1="50.013%" x2="50.013%" y1="100%" y2="0%"><stop offset="0%" stop-color="gray" stop-opacity=".25"/><stop offset="54%" stop-color="gray" stop-opacity=".12"/><stop offset="100%" stop-color="gray" stop-opacity=".1"/></linearGradient><linearGradient id="ad" x1="50%" x2="50%" y1="100%" y2="0%"><stop offset="0%" stop-color="gray" stop-opacity=".25"/><stop offset="54%" stop-color="gray" stop-opacity=".12"/><stop offset="100%" stop-color="gray" stop-opacity=".1"/></linearGradient><linearGradient id="ae" x1="49.983%" x2="49.983%" y1="100.203%" y2=".254%"><stop offset="0%" stop-color="gray" stop-opacity=".25"/><stop offset="54%" stop-color="gray" stop-opacity=".12"/><stop offset="100%" stop-color="gray" stop-opacity=".1"/></linearGradient><linearGradient id="af" x1="49.983%" x2="49.983%" y1="100%" y2="0%"><stop offset="0%" stop-color="gray" stop-opacity=".25"/><stop offset="54%" stop-color="gray" stop-opacity=".12"/><stop offset="100%" stop-color="gray" stop-opacity=".1"/></linearGradient><linearGradient id="ag" x1="50.005%" x2="50.005%" y1="100%" y2="0%"><stop offset="0%" stop-color="gray" stop-opacity=".25"/><stop offset="54%" stop-color="gray" stop-opacity=".12"/><stop offset="100%" stop-color="gray" stop-opacity=".1"/></linearGradient><linearGradient id="ah" x1="50%" x2="50%" y1="100%" y2="0%"><stop offset="0%" stop-color="gray" stop-opacity=".25"/><stop offset="54%" stop-color="gray" stop-opacity=".12"/><stop offset="100%" stop-color="gray" stop-opacity=".1"/></linearGradient></defs><g fill="none"><g opacity=".7" transform="translate(0 69.755)"><path fill="url(#a)" d="M132.153 31.847L.202.071v248.703l131.951-34.54z" opacity=".1" transform="translate(199.455 98.093)"/><path fill="url(#b)" d="M199.657 98.163l68.392-56.648L400 75.368l-68.392 54.572z"/><path fill="url(#c)" d="M0 76.054l67.7 53.886 131.957-31.777-67.014-56.648z"/><path fill="url(#c)" d="M0 34.638l67.7 53.885 131.957-31.776L132.643.098z" opacity=".05" transform="translate(0 41.417)"/><rect width="97.94" height="90.365" x=".425" y=".207" fill="url(#d)" opacity=".5" rx="4.5" transform="translate(101.362 69.21)"/><rect width="95.684" height="88.174" x="102.981" y="70.114" fill="url(#e)" rx="4.5"/><rect width="16.136" height="14.523" x="110.354" y="84.638" fill="url(#f)" rx="4.5"/><rect width="64.147" height="1.613" x="131.33" y="84.638" fill="url(#g)" rx=".8"/><rect width="64.147" height="1.613" x="131.33" y="89.477" fill="url(#g)" rx=".8"/><rect width="86.736" height="1.613" x="108.741" y="107.052" fill="url(#h)" rx=".8"/><rect width="86.736" height="1.613" x="108.741" y="111.891" fill="url(#h)" rx=".8"/><rect width="86.736" height="1.613" x="108.741" y="118.343" fill="url(#h)" rx=".8"/><rect width="50.022" height="1.613" x="108.741" y="123.188" fill="url(#i)" rx=".8"/><rect width="86.736" height="1.613" x="108.741" y="129.624" fill="url(#h)" rx=".8"/><rect width="86.736" height="1.613" x="108.741" y="134.463" fill="url(#h)" rx=".8"/><rect width="86.736" height="1.613" x="108.741" y="140.921" fill="url(#h)" rx=".8"/><rect width="50.022" height="1.613" x="108.741" y="145.76" fill="url(#i)" rx=".8"/><rect width="97.94" height="90.365" x=".49" y=".376" fill="url(#j)" opacity=".5" rx="4.5" transform="translate(116.076 89.918)"/><rect width="95.684" height="88.174" x="117.76" y="90.997" fill="url(#e)" rx="4.5"/><rect width="16.136" height="14.523" x="125.134" y="105.52" fill="url(#f)" rx="4.5"/><rect width="64.147" height="1.613" x="146.114" y="105.52" fill="url(#g)" rx=".8"/><rect width="64.147" height="1.613" x="146.114" y="110.36" fill="url(#g)" rx=".8"/><rect width="86.736" height="1.613" x="123.52" y="127.929" fill="url(#k)" rx=".8"/><rect width="86.736" height="1.613" x="123.52" y="132.774" fill="url(#k)" rx=".8"/><rect width="86.736" height="1.613" x="123.52" y="139.226" fill="url(#k)" rx=".8"/><rect width="50.022" height="1.613" x="123.52" y="144.065" fill="url(#i)" rx=".8"/><rect width="86.736" height="1.613" x="123.52" y="150.507" fill="url(#k)" rx=".8"/><rect width="86.736" height="1.613" x="123.52" y="155.346" fill="url(#k)" rx=".8"/><rect width="86.736" height="1.613" x="123.52" y="161.804" fill="url(#k)" rx=".8"/><rect width="50.022" height="1.613" x="123.52" y="166.643" fill="url(#i)" rx=".8"/><path fill="url(#l)" d="M.223.082h84.861v99.706H.223z" opacity=".5" transform="translate(173.297 101.907)"/><path fill="url(#m)" d="M176.131 103.597h80.447v95.896h-80.447z"/><path fill="url(#n)" d="M15.286 2.768V.36H6.54v2.408H.387V14.6h21.035V2.77h-6.136zM7.63 1.226h6.54v1.531H7.63v-1.53z" opacity=".5" transform="translate(205.45 116.076)"/><path fill="url(#o)" d="M206.725 119.243h19.259v10.834h-19.259z"/><path fill="url(#p)" d="M212.343 117.035v2.812h1.003v-2.005h6.016v2.005h1.003v-2.812z"/><path fill="url(#q)" d="M188.169 145.668h56.572v2.409h-56.572zm0 15.847h56.572v2.409h-56.572zm0 4.213h56.572v2.409h-56.572z"/><path fill="url(#r)" d="M188.169 157.302h23.875v2.409h-23.875z"/><path fill="url(#s)" d="M.185.354h17.853v2.409H.185z" opacity=".6" transform="translate(226.703 156.948)"/><path fill="url(#t)" d="M208.027 175.559h17.853v2.409h-17.853z"/><path fill="url(#u)" d="M132.153 182.627L.202 217.166V35.477L132.153.24z" opacity=".07" transform="translate(199.455 129.7)"/><path fill="url(#v)" d="M.082 15.019v60.104l52.507-14.507V.512z" opacity=".07" transform="translate(279.02 236.512)"/><path fill="url(#w)" d="M262.55 114.67h38.916v37.39H262.55z"/><path fill="url(#x)" d="M263.161 115.586h37.695v35.711h-37.695z"/><path fill="url(#y)" d="M11.771 1.956V.136H5.106v1.831H.436v9.003h16.005V1.956h-4.67zM5.941.79h5.002v1.166H5.94V.79z" opacity=".5" transform="translate(273.57 119.891)"/><path fill="url(#z)" d="M.022.082h14.649v8.24H.022z" opacity=".6" transform="translate(274.66 122.07)"/><path fill="url(#A)" d="M.48.033v2.141h.768V.649h4.578v1.525h.763V.033z" opacity=".6" transform="translate(278.474 120.436)"/><path fill="url(#B)" d="M.316.016h13.58v1.831H.316z" opacity=".6" transform="translate(275.204 136.785)"/><path fill="url(#C)" d="M270.409 140.158h23.199v1.831h-23.199z"/><path fill="url(#D)" d="M.267.376h50.42v41.417H.267z" opacity=".5" transform="translate(170.027)"/><path fill="url(#E)" d="M170.883 1.161h49.15v39.946h-49.15z"/><path fill="url(#F)" d="M170.883 1.161h49.15v8.91h-49.15z"/><path fill="url(#F)" d="M.311.071h49.15v8.91H.311z" opacity=".1" transform="translate(170.572 1.09)"/><path fill="url(#G)" d="M174.801 13.302h41.319v5.188h-41.319z"/><path fill="url(#H)" d="M174.801 22.409h30.158v1.76h-30.158z"/><path fill="url(#I)" d="M174.801 25.444h19.58v1.76h-19.58z"/><path fill="url(#J)" d="M174.801 28.48h25.847v1.76h-25.847z"/><path fill="url(#K)" d="M174.801 31.51h30.158v1.76h-30.158z"/><path fill="url(#L)" d="M174.801 34.545h10.082v1.76h-10.082z"/><path fill="url(#M)" d="M.283.414h62.496v51.33H.283z" opacity=".5" transform="translate(244.142 31.063)"/><path fill="url(#N)" d="M245.155 32.447h60.921v49.51h-60.921z"/><path fill="url(#O)" d="M245.155 32.447h60.921v11.041h-60.921z"/><path fill="url(#P)" d="M250.005 47.493h51.21v6.431h-51.21z"/><path fill="url(#Q)" d="M250.005 58.779h37.379v2.185h-37.379z"/><path fill="url(#R)" d="M250.005 62.54h24.272v2.185h-24.272z"/><path fill="url(#S)" d="M250.005 66.305h32.038v2.185h-32.038z"/><path fill="url(#Q)" d="M250.005 70.065h37.379v2.185h-37.379z"/><path fill="url(#T)" d="M250.005 73.826h12.501v2.185h-12.501z"/><path fill="url(#U)" d="M252.676 49.678h14.561v1.94h-14.561z"/><path fill="url(#V)" d="M.038 93.052l73.918 18.654 59.412-48.36V33.64L1.417.48z" opacity=".1" transform="translate(65.94 131.88)"/><path fill="url(#W)" d="M133.733 93.052l-73.924 18.654L.398 63.346V33.64L132.349.48z" opacity=".1" transform="translate(198.91 131.88)"/><path fill="url(#X)" d="M67.7 129.94L0 185.902l131.951 33.161 67.706-53.886z"/><path fill="url(#Y)" d="M331.608 129.94L400 185.902l-131.259 33.161-69.084-53.886z"/><path fill="url(#Y)" d="M132.153.24l68.392 55.962-131.259 33.16L.202 35.477z" opacity=".07" transform="translate(199.455 129.7)"/></g><path fill="#C9C9C9" d="M331.847 198.016l-130.822-31.509v246.577l130.822-34.245z"/><path fill="#C9C9C9" d="M331.847 198.016l-130.822-31.509v246.577l130.822-34.245z" opacity=".1"/><path fill="#BABABA" d="M70.207 198.016l130.818-31.509v246.577L70.207 379.52z"/><path fill="#BABABA" d="M70.207 196.926l130.818-31.509v247.667L70.207 379.52z" opacity=".17"/><path fill="#E0E0E0" d="M199.935 167.597l68.899-57.254 130.823 33.564-68.9 55.199z"/><path fill="#E0E0E0" d="M4.174 145.678l67.123 53.428 130.817-31.509-66.436-56.164z"/><path fill="#000" d="M3.084 144.589l68.758 54.517 130.817-31.509-68.07-57.254z" opacity=".05"/><rect width="97.101" height="89.591" x=".452" y=".131" fill="url(#Z)" opacity=".5" rx="4.5" transform="translate(103.542 137.875)"/><rect width="94.861" height="87.417" x="105.183" y="138.703" fill="#F5F5F5" rx="4.5"/><rect width="16" height="14.398" x="112.49" y="153.101" fill="#6C63FF" rx="4.5"/><rect width="63.597" height="1.602" x="133.292" y="153.101" fill="#E0E0E0" rx=".8"/><rect width="63.597" height="1.602" x="133.292" y="157.896" fill="#E0E0E0" rx=".8"/><rect width="85.995" height="1.602" x="110.894" y="175.319" fill="#E0E0E0" rx=".8"/><rect width="85.995" height="1.602" x="110.894" y="180.12" fill="#E0E0E0" rx=".8"/><rect width="85.995" height="1.602" x="110.894" y="186.518" fill="#E0E0E0" rx=".8"/><rect width="49.597" height="1.602" x="110.894" y="191.319" fill="#E0E0E0" rx=".8"/><rect width="85.995" height="1.602" x="110.894" y="197.7" fill="#E0E0E0" rx=".8"/><rect width="85.995" height="1.602" x="110.894" y="202.501" fill="#E0E0E0" rx=".8"/><rect width="85.995" height="1.602" x="110.894" y="208.899" fill="#E0E0E0" rx=".8"/><rect width="49.597" height="1.602" x="110.894" y="213.7" fill="#E0E0E0" rx=".8"/><rect width="97.101" height="89.591" x=".392" y=".125" fill="url(#aa)" opacity=".5" rx="4.5" transform="translate(118.256 158.583)"/><rect width="94.861" height="87.417" x="119.837" y="159.406" fill="#FFF" rx="4.5"/><rect width="16" height="14.398" x="127.144" y="173.804" fill="#6C63FF" rx="4.5"/><rect width="63.597" height="1.602" x="147.946" y="173.804" fill="#E0E0E0" rx=".8"/><rect width="63.597" height="1.602" x="147.946" y="178.599" fill="#E0E0E0" rx=".8"/><rect width="85.995" height="1.602" x="125.548" y="196.022" fill="#E0E0E0" rx=".8"/><rect width="85.995" height="1.602" x="125.548" y="200.823" fill="#E0E0E0" rx=".8"/><rect width="85.995" height="1.602" x="125.548" y="207.221" fill="#E0E0E0" rx=".8"/><rect width="49.597" height="1.602" x="125.548" y="212.022" fill="#E0E0E0" rx=".8"/><rect width="85.995" height="1.602" x="125.548" y="218.403" fill="#E0E0E0" rx=".8"/><rect width="85.995" height="1.602" x="125.548" y="223.204" fill="#E0E0E0" rx=".8"/><rect width="85.995" height="1.602" x="125.548" y="229.602" fill="#E0E0E0" rx=".8"/><rect width="49.597" height="1.602" x="125.548" y="234.403" fill="#E0E0E0" rx=".8"/><path fill="url(#ab)" d="M.185.278h84.136v98.85H.185z" opacity=".5" transform="translate(174.932 170.027)"/><path fill="#FFF" d="M177.706 171.896h79.76v95.074h-79.76z"/><path fill="url(#ac)" d="M14.845 2.817V.425H6.153v2.392H.07V14.55h20.855V2.817h-6.081zm-7.63-1.52h6.54v1.52h-6.54v-1.52z" opacity=".5" transform="translate(207.084 184.196)"/><path fill="#6C63FF" d="M208.038 187.411h19.095v10.741h-19.095z"/><path fill="#6C63FF" d="M213.608 185.221v2.784h.991v-1.989h5.968v1.989h.997v-2.784z"/><path fill="#E0E0E0" d="M189.64 213.608h56.087v2.387H189.64zm0 15.711h56.087v2.387H189.64zm0 4.18h56.087v2.387H189.64zm0-8.355h23.668v2.387H189.64z"/><path fill="#3AD29F" d="M228.027 225.144h17.7v2.387h-17.7z" opacity=".6"/><path fill="#6C63FF" d="M209.33 243.243h17.7v2.387h-17.7z"/><path fill="#E0E0E0" d="M70.207 198.016V379.52l130.818 33.564 1.765-180.136z"/><path fill="#D0D0D0" d="M331.847 378.839l-130.822 34.245V232.948l130.822-34.932z"/><path fill="#E0E0E0" d="M331.847 378.839l-130.822 34.245V232.948l130.822-34.932z" opacity=".07"/><path fill="#000" d="M279.793 318.567v59.586l52.054-14.382V304.18z" opacity=".07"/><path fill="url(#ad)" d="M263.384 182.877h38.583v37.068h-38.583z"/><path fill="#F5F5F5" d="M263.989 183.782h37.373v35.406h-37.373z"/><path fill="url(#ae)" d="M11.324 1.978V.136h-6.61v1.82H.087v8.927h15.864V1.978h-4.627zM5.542.823h4.96v1.155h-4.96V.823z" opacity=".5" transform="translate(274.66 188.01)"/><path fill="#6C63FF" d="M275.411 190.289h14.523v8.169h-14.523z" opacity=".6"/><path fill="#6C63FF" d="M279.651 188.627v2.12h.758v-1.515h4.539v1.515h.752v-2.12zm-3.405 16.191h13.466v1.815h-13.466z" opacity=".6"/><path fill="#BDBDBD" d="M271.177 208.147h22.997v1.815h-22.997z"/><path fill="url(#ad)" d="M226.398 0h38.583v37.068h-38.583z"/><path fill="#F5F5F5" d="M227.003.91h37.373v35.406h-37.373z"/><path fill="url(#af)" d="M11.395 2.207V.392h-6.61v1.815H.158v8.927h15.864V2.207h-4.627zM5.613 1.052h4.96v1.155h-4.96V1.052z" opacity=".5" transform="translate(237.602 4.905)"/><path fill="#6C63FF" d="M238.425 7.411h14.523v8.169h-14.523z" opacity=".6"/><path fill="#6C63FF" d="M242.665 5.749v2.12h.757V6.354h4.54v1.515h.752v-2.12zm-3.406 16.191h13.466v1.815h-13.466z" opacity=".6"/><path fill="#BDBDBD" d="M234.191 25.27h22.997v1.815h-22.997z"/><path fill="url(#ag)" d="M.256.349h49.989v41.063H.256z" opacity=".5" transform="translate(171.662 69.21)"/><path fill="#F2F2F2" d="M172.501 70.338h48.73v39.602h-48.73z"/><path fill="#6C63FF" d="M172.501 70.338h48.73v8.834h-48.73z"/><path fill="#000" d="M172.501 70.338h48.73v8.834h-48.73z" opacity=".1"/><path fill="#E0E0E0" d="M176.387 82.376h40.965v5.144h-40.965zm0 9.025h29.896v1.749h-29.896zm0 3.008h19.411v1.749h-19.411zm0 3.008h25.624v1.749h-25.624zm0 3.014h29.896v1.749h-29.896zm0 3.008h10v1.749h-10z"/><path fill="url(#ah)" d="M.18.12h61.962v50.894H.18z" opacity=".5" transform="translate(245.232 100.272)"/><path fill="#FFF" d="M246.136 101.351h60.398v49.09h-60.398z"/><path fill="#6C63FF" d="M246.136 101.351h60.398v10.948h-60.398z"/><path fill="#F5F5F5" d="M250.948 116.272h50.774v6.376h-50.774z"/><path fill="#E0E0E0" d="M250.948 127.46h37.057v2.163h-37.057zm0 3.733h24.065v2.163h-24.065zm0 3.728h31.76v2.163h-31.76zm0 3.733h37.057v2.163h-37.057zm0 3.727h12.392v2.163h-12.392z"/><path fill="#69F0AE" d="M253.597 118.436h14.436v1.924h-14.436z"/><path fill="#000" d="M68.496 292.196l73.286 18.491 58.905-47.946v-29.449L69.864 200.414zm264.381 0l-73.286 18.491-58.904-47.946v-29.449l130.823-32.878z" opacity=".1"/><path fill="#E0E0E0" d="M70.207 198.016L3.084 253.493l130.818 32.878 67.123-53.423zm261.64 0l67.81 55.477-130.137 32.878-68.495-53.423z"/><path fill="#000" d="M331.847 198.016l67.81 55.477-130.137 32.878-68.495-53.423z" opacity=".07"/></g></svg>