<?xml version="1.0" encoding="iso-8859-1"?>
<!-- Generator: Adobe Illustrator 18.0.0, SVG Export Plug-In . SVG Version: 6.00 Build 0)  -->
<!DOCTYPE svg PUBLIC "-//W3C//DTD SVG 1.1//EN" "http://www.w3.org/Graphics/SVG/1.1/DTD/svg11.dtd">
<svg version="1.1" id="Capa_1" xmlns="http://www.w3.org/2000/svg" xmlns:xlink="http://www.w3.org/1999/xlink" x="0px" y="0px"
	 viewBox="0 0 339.004 339.004" style="enable-background:new 0 0 339.004 339.004;" xml:space="preserve" fill="#9ba9b9">
<path d="M262.122,232.344c0.197-26.82-10.405-48.031-31.552-63.01c-16.333-11.533-36.154-17.549-55.325-23.33
	c-39.936-12.107-51.521-18.484-51.521-37.582c0-21.273,27.646-28.842,51.313-28.842c17.236,0,37.066,5.359,49.381,13.301
	l24.415-37.812c-16.095-10.434-38.123-17.551-59.875-19.76V0H143.92v37.785c-40.035,8.807-65.255,34.973-65.255,70.637
	c0,24.977,10.379,44.785,30.79,58.756c15.524,10.666,34.457,16.393,52.746,21.938c39.172,11.84,55.079,19.055,54.898,42.949
	l-0.001,0.176c0,20.055-26.577,27.184-49.346,27.184c-21.508,0-44.897-9.426-58.155-23.441l-32.719,30.949
	c16.79,17.758,41.184,30.313,67.041,35.234v36.838h45.039v-36.045C233.445,296.592,262.078,269.809,262.122,232.344z"/>
<g>
</g>
<g>
</g>
<g>
</g>
<g>
</g>
<g>
</g>
<g>
</g>
<g>
</g>
<g>
</g>
<g>
</g>
<g>
</g>
<g>
</g>
<g>
</g>
<g>
</g>
<g>
</g>
<g>
</g>
</svg>
