<?xml version="1.0" encoding="UTF-8"?>
<svg width="182px" height="24px" viewBox="0 0 182 24" version="1.1" xmlns="http://www.w3.org/2000/svg" xmlns:xlink="http://www.w3.org/1999/xlink">
    <title>logo copy</title>
    <g id="Symbols" stroke="none" stroke-width="1" fill="none" fill-rule="evenodd">
        <g id="Group" fill-rule="nonzero">
            <g id="Group-11" transform="translate(-0.000000, -0.000000)">
                <path d="M109.851471,5.27767492 L113.791471,15.4755377 L113.848339,15.4755377 L117.788545,5.27767492 L121.133279,5.27767492 L113.599636,23.8402796 L110.485775,23.8402796 L112.289194,19.414997 L106.449868,5.27767492 L109.851471,5.27767492 Z M101.732327,1.81988791 L101.732327,5.41383069 L104.454383,5.41383069 L105.554538,8.12333866 L101.760946,8.12333866 L101.760946,15.5214336 C101.760946,17.0420191 102.077218,17.7055511 103.744017,17.7055511 L104.951032,17.7055511 L104.951032,20.7467221 L103.485401,20.7467221 C99.6631898,20.7467221 98.5422419,19.0877893 98.5422419,15.8530966 L98.5422419,8.12333866 L96.2431072,8.12333866 L96.2431072,5.41383069 L98.6285168,5.41383069 L98.6285168,1.81988791 L101.732327,1.81988791 Z M88.5864966,4.91369734 C92.5606326,4.91369734 95.5268433,7.87603725 95.5268433,12.7391113 L95.5268433,13.6893743 L84.8715114,13.6893743 C84.9577557,16.0929196 86.2539293,17.7418319 88.6729501,17.7418319 C90.4492314,17.7418319 91.4741012,16.8666053 92.1543924,16.0048754 L94.4971373,17.8910837 C93.2920716,19.3837757 91.4833049,20.5647333 88.7305161,20.5647333 C84.5834729,20.5647333 81.5596967,17.5462018 81.5596967,12.7391113 C81.5596967,7.93202076 84.5834729,4.91369734 88.5864966,4.91369734 Z M174.180036,4.91369734 C178.154172,4.91369734 181.120383,7.87603725 181.120383,12.7391113 L181.120383,13.6893743 L170.465051,13.6893743 C170.551295,16.0929196 171.847468,17.7418319 174.26649,17.7418319 C176.042771,17.7418319 177.067641,16.8666053 177.747932,16.0048754 L180.090677,17.8910837 C178.885611,19.3837757 177.076844,20.5647333 174.324056,20.5647333 C170.177013,20.5647333 167.153236,17.5462018 167.153236,12.7391113 C167.153236,7.93202076 170.177013,4.91369734 174.180036,4.91369734 Z M52.511106,4.91369734 C55.8326244,4.91369734 57.922987,6.96128757 57.922987,10.4674438 L57.922987,20.2007557 L54.687223,20.2007557 L54.687223,11.3089965 C54.687223,9.12104305 53.8854628,7.85881847 51.7380694,7.85881847 C49.7334608,7.85881847 48.4735818,9.06506484 48.4735818,10.9725007 L48.4735818,20.2007557 L45.2093023,20.2007557 L45.2093023,5.33436925 L48.3591041,5.33436925 L48.3591041,6.76494614 L48.416343,6.76494614 C49.2181031,5.75504115 50.7931081,4.91369734 52.511106,4.91369734 Z M74.1780899,4.91369734 C77.4996084,4.91369734 79.589971,6.96128757 79.589971,10.4674438 L79.589971,20.2007557 L76.3542067,20.2007557 L76.3542067,11.3089965 C76.3542067,9.12104305 75.5524465,7.85881847 73.4050532,7.85881847 C71.4004448,7.85881847 70.1405654,9.06506484 70.1405654,10.9725007 L70.1405654,20.2007557 L66.8762863,20.2007557 L66.8762863,5.33436925 L70.0260882,5.33436925 L70.0260882,6.76494614 L70.0833271,6.76494614 C70.8850867,5.75504115 72.4600917,4.91369734 74.1780899,4.91369734 Z M138.104646,4.91369734 C141.426164,4.91369734 143.516527,6.96128757 143.516527,10.4674438 L143.516527,20.2007557 L140.280762,20.2007557 L140.280762,11.3089965 C140.280762,9.12104305 139.479002,7.85881847 137.331609,7.85881847 C135.327001,7.85881847 134.067122,9.06506484 134.067122,10.9725007 L134.067122,20.2007557 L130.802842,20.2007557 L130.802842,5.33436925 L133.952644,5.33436925 L133.952644,6.76494614 L134.009883,6.76494614 C134.811643,5.75504115 136.386647,4.91369734 138.104646,4.91369734 Z M159.77163,4.91369734 C163.093148,4.91369734 165.183511,6.96128757 165.183511,10.4674438 L165.183511,20.2007557 L161.947746,20.2007557 L161.947746,11.3089965 C161.947746,9.12104305 161.145986,7.85881847 158.998593,7.85881847 C156.993985,7.85881847 155.734105,9.06506484 155.734105,10.9725007 L155.734105,20.2007557 L152.469826,20.2007557 L152.469826,5.33436925 L155.619627,5.33436925 L155.619627,6.76494614 L155.676866,6.76494614 C156.478626,5.75504115 158.053631,4.91369734 159.77163,4.91369734 Z M64.0112305,5.27767492 L64.0112305,20.018767 L60.7880428,20.018767 L60.7880428,5.27767492 L64.0112305,5.27767492 Z M149.60477,5.27767492 L149.60477,20.018767 L146.381583,20.018767 L146.381583,5.27767492 L149.60477,5.27767492 Z M88.5864966,7.73639062 C86.2250417,7.73639062 85.015531,9.58093312 84.9003991,11.285829 L92.33016,11.285829 C92.215238,9.30143174 91.0341963,7.73639062 88.5864966,7.73639062 Z M174.180036,7.73639062 C171.818581,7.73639062 170.609071,9.58093312 170.493939,11.285829 L177.9237,11.285829 C177.808778,9.30143174 176.627736,7.73639062 174.180036,7.73639062 Z M62.3996367,-2.27373675e-13 C63.2897135,-2.27373675e-13 64.0112305,0.733294119 64.0112305,1.63789912 C64.0112305,2.54250411 63.2897135,3.27579823 62.3996367,3.27579823 C61.5095598,3.27579823 60.7880428,2.54250411 60.7880428,1.63789912 C60.7880428,0.733294119 61.5095598,-2.27373675e-13 62.3996367,-2.27373675e-13 Z M147.993176,-2.27373675e-13 C148.883253,-2.27373675e-13 149.60477,0.733294119 149.60477,1.63789912 C149.60477,2.54250411 148.883253,3.27579823 147.993176,3.27579823 C147.1031,3.27579823 146.381583,2.54250411 146.381583,1.63789912 C146.381583,0.733294119 147.1031,-2.27373675e-13 147.993176,-2.27373675e-13 Z" id="Combined-Shape-Copy-3" fill="#1C1C1C"></path>
                <polygon id="Combined-Shape-Copy-4" fill="#2E6BEF" transform="translate(16.744186, 12.558140) scale(-1, 1) rotate(-180.000000) translate(-16.744186, -12.558140) " points="2.8384698 5.2070777 12.0785949 14.4078376 21.5112966 5.02325581 33.4883721 16.9808611 30.6374902 19.807085 21.3953164 10.6145379 12.0785949 20.0930233 -1.66977543e-13 8.03962605"></polygon>
            </g>
        </g>
    </g>
</svg>